<svg id="Layer_1" data-name="Layer 1" xmlns="http://www.w3.org/2000/svg" viewBox="0 0 1000 1000"><defs><style>.cls-1{fill:#fff;}</style></defs><polygon class="cls-1" points="484.16 545.79 334.84 497.5 334.84 711.8 484.16 760.09 484.16 545.79"/><path class="cls-1" d="M55.31,916.29H944.68c30.5,0,55.32-25.36,55.32-57.79V312.22H0V858.5C0,890.93,24.81,916.29,55.31,916.29ZM303.17,475.76a15.64,15.64,0,0,1,10.75-15.08l181.17-58.49a15.66,15.66,0,0,1,9.67,0l181.29,58.49a15.66,15.66,0,0,1,10.78,15.08V723.34a15.64,15.64,0,0,1-10.76,15.07l-181.19,58.5a15.57,15.57,0,0,1-9.64,0L314,738.41a15.65,15.65,0,0,1-10.78-15.07Z"/><polygon class="cls-1" points="629.79 475.76 500 433.9 370.21 475.76 500 517.61 629.79 475.76"/><polygon class="cls-1" points="515.84 760.09 665.16 711.8 665.16 497.5 515.84 545.79 515.84 760.09"/><path class="cls-1" d="M90.89,144.9c-17.42,0-31.6,15.22-31.6,33.92s14.17,33.92,31.6,33.92,31.59-15.22,31.59-33.92S108.31,144.9,90.89,144.9Z"/><path class="cls-1" d="M399.2,144.9c-17.42,0-31.59,15.22-31.59,33.92s14.17,33.92,31.59,33.92,31.6-15.22,31.6-33.92S416.63,144.9,399.2,144.9Z"/><path class="cls-1" d="M1000,141.5c0-32.43-24.82-57.79-55.32-57.79H55.31C24.81,83.71,0,109.07,0,141.5v139H1000ZM90.89,244.42c-34.89,0-63.27-29.43-63.27-65.6s28.38-65.6,63.27-65.6,63.27,29.43,63.27,65.6S125.78,244.42,90.89,244.42Zm154.16,0c-34.89,0-63.28-29.43-63.28-65.6s28.39-65.6,63.28-65.6,63.27,29.43,63.27,65.6S279.93,244.42,245.05,244.42Zm154.15,0c-34.89,0-63.27-29.43-63.27-65.6s28.38-65.6,63.27-65.6,63.28,29.43,63.28,65.6S434.09,244.42,399.2,244.42Z"/><path class="cls-1" d="M245.05,144.9c-17.43,0-31.6,15.22-31.6,33.92s14.17,33.92,31.6,33.92,31.59-15.22,31.59-33.92S262.47,144.9,245.05,144.9Z"/></svg>