<svg id="Layer_1" data-name="Layer 1" xmlns="http://www.w3.org/2000/svg" viewBox="0 0 1000 1000"><defs><style>.cls-1{fill:#fff;}</style></defs><path class="cls-1" d="M400.2,392.28a15.1,15.1,0,0,0,15,13.55,13.77,13.77,0,0,0,1.57-.09c3.28-.33,81.41-8.83,177.92-53.41,82.23-38,192.27-110,267.27-240.57l22.2,111a15.1,15.1,0,0,0,29.62-5.92L884,67.67a17.64,17.64,0,0,0-22.28-11.21c-.53.18-1,.38-1.56.61L717,86.47A15.1,15.1,0,0,0,723,116.06L838.24,92.4A535.27,535.27,0,0,1,727.46,230.33,588.94,588.94,0,0,1,583,324.43c-92.12,42.75-168.6,51.17-169.36,51.25a15.11,15.11,0,0,0-13.46,16.59Z"/><polygon class="cls-1" points="342.35 532.93 212.06 490.92 81.78 532.93 212.06 574.95 342.35 532.93"/><polygon class="cls-1" points="376.99 553.68 223.77 602.92 223.77 816.19 376.99 766.95 376.99 553.68"/><polygon class="cls-1" points="46.81 766.95 193.56 813.99 193.56 600.73 46.81 553.68 46.81 766.95"/><path class="cls-1" d="M984.89,914.22H944.56V314.28H871.19V914.22H752.49V456.71H679.12V914.22H562.58V551.66H489.21V914.22H15.11a15.11,15.11,0,1,0,0,30.21H984.89a15.11,15.11,0,1,0,0-30.21Z"/></svg>