<svg id="Layer_1" data-name="Layer 1" xmlns="http://www.w3.org/2000/svg" viewBox="0 0 1000 1000"><defs><style>.cls-1{fill:#fff;}</style></defs><path class="cls-1" d="M730.43,1000a72.75,72.75,0,1,0-72.75-72.75h0A72.83,72.83,0,0,0,730.43,1000Z"/><path class="cls-1" d="M808.08,562.12a59.61,59.61,0,1,0,59.6-59.6h0A59.67,59.67,0,0,0,808.08,562.12Z"/><rect class="cls-1" x="563.27" y="222.31" width="173.16" height="29.76" transform="translate(80.81 630.59) rotate(-54.71)"/><rect class="cls-1" x="614.67" y="695.46" width="29.77" height="174.89" transform="translate(-330.7 487.63) rotate(-34.1)"/><rect class="cls-1" x="729.4" y="487.52" width="29.77" height="99.74" transform="translate(72 1162.52) rotate(-78.75)"/><circle class="cls-1" cx="757.95" cy="84.44" r="84.44"/><polygon class="cls-1" points="548.97 325.87 323.6 398.57 323.6 712.56 548.97 639.87 548.97 325.87"/><path class="cls-1" d="M681.52,502.24A230.62,230.62,0,0,0,578.73,310.7v340a14.87,14.87,0,0,1-10.3,14.17L387.37,723.27c122.21,35.26,249.86-35.22,285.12-157.44A230,230,0,0,0,681.52,502.24Z"/><polygon class="cls-1" points="515.39 305.43 310.92 239.49 106.45 305.43 310.92 371.38 515.39 305.43"/><polygon class="cls-1" points="72.71 639.87 293.83 711.14 293.83 397.14 72.71 325.87 72.71 639.87"/></svg>