<svg id="Layer_1" data-name="Layer 1" xmlns="http://www.w3.org/2000/svg" viewBox="0 0 1000 1000"><defs><style>.cls-1{fill:#fff;}</style></defs><path class="cls-1" d="M848.89,680H880V605.88c0-8.59-8.06-14.76-16.65-14.76H515.56V524.83L548.19,558a15.26,15.26,0,0,0,21.57.18l.17-.18a15.56,15.56,0,0,0-.12-22h0l-59.57-59.51a15.63,15.63,0,0,0-22.05,0L428.68,536a15.56,15.56,0,0,0,11,26.56A16.69,16.69,0,0,0,451.18,558l33.26-32.76v65.91H138.83c-8.59,0-16.61,6.17-16.61,14.76v71.9h31.11V622.23H484.44V680h31.12V622.23H848.89Z"/><path class="cls-1" d="M369.7,234.08A128.57,128.57,0,0,0,405,325.5a82.62,82.62,0,0,1,22.63,53.9,16,16,0,0,0,2.67,31.72H569.86a15.93,15.93,0,0,0,15.56-16,15.75,15.75,0,0,0-14.36-15.71c.56-19.62,8.44-37.95,23.28-53.49a130,130,0,1,0-224.66-91.85Z"/><path class="cls-1" d="M457.45,426.67a15.56,15.56,0,0,0,0,31.11h85.29a15.56,15.56,0,0,0,0-31.11Z"/><path class="cls-1" d="M513.33,66.17V18.67a15.56,15.56,0,0,0-31.11,0V66.16a15.56,15.56,0,1,0,31.11,0h0Z"/><path class="cls-1" d="M624.65,128.36l34.89-33a15.56,15.56,0,0,0-21.36-22.62l-34.89,32.95a15.56,15.56,0,0,0,21.37,22.62Z"/><path class="cls-1" d="M362.41,67.85a15.56,15.56,0,0,0-22.16,21.84l33.44,33.92a15.55,15.55,0,1,0,22.15-21.84Z"/><polygon class="cls-1" points="375.56 960.34 482.22 995.05 482.22 835.33 375.56 800.62 375.56 960.34"/><polygon class="cls-1" points="590.29 779.26 500 750.14 409.71 779.26 500 808.37 590.29 779.26"/><polygon class="cls-1" points="624.44 800.62 513.33 836.76 513.33 996.48 624.44 960.34 624.44 800.62"/><polygon class="cls-1" points="886.67 996.88 1000 960.34 1000 800.62 886.67 837.16 886.67 996.88"/><polygon class="cls-1" points="855.56 834.92 748.89 800.62 748.89 960.34 855.56 994.64 855.56 834.92"/><polygon class="cls-1" points="964.87 779.26 874.58 750.14 784.3 779.26 874.58 808.37 964.87 779.26"/><polygon class="cls-1" points="108.89 835.73 0 800.62 0 960.34 108.89 995.45 108.89 835.73"/><polygon class="cls-1" points="251.11 800.62 140 836.36 140 996.08 251.11 960.34 251.11 800.62"/><polygon class="cls-1" points="125.42 750.14 35.13 779.26 125.42 808.37 215.7 779.26 125.42 750.14"/></svg>