<svg id="Layer_1" data-name="Layer 1" xmlns="http://www.w3.org/2000/svg" viewBox="0 0 1000 1000"><defs><style>.cls-1{fill:#fff;}</style></defs><polygon class="cls-1" points="516.36 665.79 670.56 615.93 670.56 394.62 516.36 444.48 516.36 665.79"/><path class="cls-1" d="M500,942.91a29.58,29.58,0,1,0-29.57-29.58h0A29.61,29.61,0,0,0,500,942.91Z"/><path class="cls-1" d="M217.29,947.78A52.81,52.81,0,0,0,270.37,1000H729.63a52.81,52.81,0,0,0,53.08-52.22V827.1H217.29ZM500,851.05a62.29,62.29,0,1,1-62.28,62.29h0A62.35,62.35,0,0,1,500,851.06Z"/><polygon class="cls-1" points="483.64 444.48 329.44 394.62 329.44 615.93 483.64 665.79 483.64 444.48"/><polygon class="cls-1" points="634.03 372.16 500 328.93 365.96 372.16 500 415.39 634.03 372.16"/><path class="cls-1" d="M217.29,140.19H782.71v-88A52.81,52.81,0,0,0,729.63,0H270.37a52.81,52.81,0,0,0-53.08,52.22ZM425.37,46.73H574.63a16.36,16.36,0,0,1,0,32.71H425.37a16.36,16.36,0,0,1,0-32.71Z"/><path class="cls-1" d="M217.29,794.39H782.71V172.9H217.29Zm79.44-422.23a16.15,16.15,0,0,1,11.11-15.57l187.09-60.41a16.24,16.24,0,0,1,10,0l187.22,60.41a16.18,16.18,0,0,1,11.13,15.57V627.84a16.18,16.18,0,0,1-11.12,15.57L505,703.82a16.14,16.14,0,0,1-10,0L307.86,643.41a16.18,16.18,0,0,1-11.13-15.57Z"/></svg>