<svg id="Layer_1" data-name="Layer 1" xmlns="http://www.w3.org/2000/svg" viewBox="0 0 1000 1000"><defs><style>.cls-1{fill:#fff;}</style></defs><path class="cls-1" d="M135,648.23H865V208H135ZM307.52,310.36A15.31,15.31,0,0,1,318,295.62l177.16-57.2a15.29,15.29,0,0,1,9.46,0l177.28,57.2a15.34,15.34,0,0,1,10.54,14.74V552.47A15.33,15.33,0,0,1,682,567.21l-177.17,57.2a15.23,15.23,0,0,1-9.44,0l-177.28-57.2a15.33,15.33,0,0,1-10.54-14.74Z"/><polygon class="cls-1" points="626.92 310.36 500 269.43 373.08 310.36 500 351.29 626.92 310.36"/><polygon class="cls-1" points="515.49 588.4 661.5 541.19 661.5 331.63 515.49 378.85 515.49 588.4"/><polygon class="cls-1" points="484.51 378.85 338.5 331.63 338.5 541.19 484.51 588.4 484.51 378.85"/><path class="cls-1" d="M623.25,775.88a104.57,104.57,0,0,1-76.46,33.85H453.21a104.55,104.55,0,0,1-76.46-33.85l-13.37-14.82H0v52.19c0,40.26,32.78,73.92,73,73.92H927c40.26,0,73-33.66,73-73.92V761.06H636.61Z"/><path class="cls-1" d="M381.56,735.15l18,19.56a73.69,73.69,0,0,0,53.68,24h93.58a73.61,73.61,0,0,0,53.69-24l18-19.91a15.31,15.31,0,0,1,11.39-4.81H953.54V186.75c0-40.26-33.08-73.92-73.33-73.92H119.79c-40.25,0-73.33,33.66-73.33,73.92V730.09H370.17A15.56,15.56,0,0,1,381.56,735.15ZM104,663.72V192.48A15.49,15.49,0,0,1,119.47,177H882.74a15.48,15.48,0,0,1,15.49,15.49V663.72a15.48,15.48,0,0,1-15.49,15.48H119.47A15.49,15.49,0,0,1,104,663.72Z"/></svg>