<svg id="Layer_1" data-name="Layer 1" xmlns="http://www.w3.org/2000/svg" viewBox="0 0 1000 1000"><defs><style>.cls-1{fill:#fff;}</style></defs><path class="cls-1" d="M352.78,90.09,292,210.65H85.15C38,210.65,0,248.29,0,295.05V825.51c0,46.76,38,84.4,85.15,84.4H912.36c47.18,0,85.15-37.64,85.15-84.4V295.05c0-46.76-38-84.4-85.15-84.4H705.56L644.74,90.09Zm146,217c140.65,0,255.46,113.78,255.46,253.18S639.41,813.46,498.76,813.46,243.3,699.68,243.3,560.28,358.1,307.1,498.76,307.1Zm0,72.34c-101.21,0-182.47,80.54-182.47,180.84s81.26,180.84,182.47,180.84,182.47-80.54,182.47-180.84S600,379.44,498.76,379.44Z"/></svg>