<svg id="Layer_1" data-name="Layer 1" xmlns="http://www.w3.org/2000/svg" viewBox="0 0 1000 1000"><defs><style>.cls-1{fill:#fff;}</style></defs><path class="cls-1" d="M160.61,770.38h558.6V664.47H263.41a17.39,17.39,0,0,1-17.1-17.56V260.53H0v621.8L151.07,773.67A15.81,15.81,0,0,1,160.61,770.38Z"/><polygon class="cls-1" points="504.93 474.89 637.93 517.78 637.93 326.95 504.93 284.07 504.93 474.89"/><polygon class="cls-1" points="654.06 224.86 543.88 260.39 654.06 295.92 764.24 260.39 654.06 224.86"/><path class="cls-1" d="M848.93,633.06,1000,741.5V117.67H280.79V630h558.6A15.58,15.58,0,0,1,848.93,633.06ZM837.44,487.45a17.17,17.17,0,0,1-11.84,16.41L659.36,557.5a17.11,17.11,0,0,1-10.59,0L482.41,503.86a17.25,17.25,0,0,1-12-16.41V260.39A17.25,17.25,0,0,1,482.39,244l166.35-53.65a17.31,17.31,0,0,1,10.56,0L825.6,244a17.17,17.17,0,0,1,11.84,16.41Z"/><polygon class="cls-1" points="672.41 517.06 802.96 474.89 802.96 284.07 672.41 326.24 672.41 517.06"/></svg>