<?xml version="1.0" standalone="no"?>
<!DOCTYPE svg PUBLIC "-//W3C//DTD SVG 20010904//EN"
 "http://www.w3.org/TR/2001/REC-SVG-20010904/DTD/svg10.dtd">
<svg version="1.0" xmlns="http://www.w3.org/2000/svg"
 width="290.000000pt" height="80.000000pt" viewBox="0 0 290.000000 80.000000"
 preserveAspectRatio="xMidYMid meet">

<g transform="translate(0.000000,80.000000) scale(0.100000,-0.100000)"
fill="#000000" stroke="none">
<path d="M10 623 c0 -141 3 -174 19 -208 36 -80 103 -115 219 -115 73 0 124
19 170 63 49 47 62 105 62 279 l0 148 -79 0 -80 0 -3 -161 -3 -161 -29 -25
c-21 -18 -35 -23 -55 -18 -53 13 -56 23 -59 200 l-3 165 -80 0 -79 0 0 -167z"/>
<path d="M540 545 l0 -245 80 0 80 0 0 60 0 60 53 0 c109 1 189 37 222 100 19
37 19 133 0 170 -21 40 -72 77 -125 89 -25 6 -105 11 -177 11 l-133 0 0 -245z
m270 105 c26 -26 26 -64 -1 -91 -15 -15 -30 -19 -62 -17 l-42 3 -3 49 c-2 27
-1 55 2 62 8 22 82 18 106 -6z"/>
<path d="M1291 528 c-14 -7 -26 -19 -29 -26 -3 -11 3 -10 26 2 63 33 117 15
128 -41 l7 -33 -56 0 c-93 0 -128 -26 -113 -84 10 -41 92 -61 132 -31 25 19
34 19 34 0 0 -8 5 -15 11 -15 19 0 8 196 -12 216 -22 21 -97 28 -128 12z m129
-142 c0 -49 -80 -83 -131 -56 -21 12 -25 50 -7 68 7 7 39 12 75 12 60 0 63 -1
63 -24z"/>
<path d="M1573 525 c-80 -34 -82 -159 -3 -200 48 -25 120 -14 148 22 10 14 12
11 12 -24 0 -24 -7 -50 -18 -63 -24 -29 -87 -37 -136 -16 -43 18 -62 12 -32
-9 24 -18 98 -29 132 -21 14 4 37 18 50 31 23 23 24 30 24 160 0 83 -4 135
-10 135 -5 0 -10 -12 -10 -27 0 -24 -2 -25 -12 -10 -28 35 -92 46 -145 22z
m134 -40 c34 -39 31 -89 -7 -127 -28 -28 -36 -30 -78 -25 -70 8 -107 66 -82
128 26 63 122 77 167 24z"/>
<path d="M1874 521 c-50 -30 -68 -105 -39 -160 16 -32 69 -61 110 -61 30 0 85
26 85 40 0 14 -12 12 -34 -5 -41 -31 -117 -11 -142 36 -8 16 -14 30 -14 34 0
3 47 5 105 5 116 0 117 1 91 65 -26 60 -102 82 -162 46z m107 -11 c16 -9 49
-58 49 -75 0 -3 -43 -5 -95 -5 -52 0 -95 2 -95 5 0 15 32 65 47 74 23 13 69
14 94 1z"/>
<path d="M2130 420 c0 -73 4 -120 10 -120 6 0 10 34 10 81 0 76 2 82 29 110
38 37 82 39 116 4 23 -22 25 -32 25 -110 0 -50 4 -85 10 -85 6 0 10 37 10 91
0 87 -1 92 -29 120 -35 35 -81 38 -128 9 -33 -20 -33 -20 -33 0 0 11 -4 20
-10 20 -6 0 -10 -47 -10 -120z"/>
<path d="M2460 523 c-70 -36 -78 -158 -13 -201 40 -26 117 -23 145 6 26 26 6
31 -26 7 -55 -41 -146 12 -146 84 0 74 91 128 146 86 31 -23 53 -19 28 6 -29
29 -90 34 -134 12z"/>
<path d="M2686 419 l55 -120 -19 -32 c-17 -29 -23 -32 -63 -30 -40 2 -42 1
-25 -13 43 -32 91 -9 120 58 7 18 37 84 64 146 30 65 46 112 39 112 -7 0 -32
-47 -57 -104 -25 -57 -48 -102 -51 -101 -3 2 -25 49 -49 104 -24 56 -49 101
-56 101 -8 0 8 -45 42 -121z"/>
<path d="M2061 89 c-1 -54 0 -56 25 -55 51 2 59 71 8 71 -10 0 -22 9 -26 20
-3 12 -6 -4 -7 -36z m54 -19 c0 -29 -32 -41 -41 -16 -9 24 4 48 23 44 12 -2
18 -12 18 -28z"/>
<path d="M2250 92 c0 -43 14 -62 45 -62 31 0 45 19 45 62 0 27 -4 38 -15 38
-10 0 -15 -11 -15 -35 0 -24 -5 -35 -15 -35 -10 0 -15 11 -15 35 0 24 -5 35
-15 35 -11 0 -15 -11 -15 -38z"/>
<path d="M2360 80 c0 -38 4 -50 15 -50 8 0 15 7 15 15 0 8 8 15 19 15 29 0 45
25 31 49 -8 15 -21 21 -45 21 l-35 0 0 -50z m50 15 c0 -8 -4 -15 -10 -15 -5 0
-10 7 -10 15 0 8 5 15 10 15 6 0 10 -7 10 -15z"/>
<path d="M2146 90 c3 -14 8 -36 11 -49 4 -14 0 -27 -8 -32 -8 -5 -9 -9 -3 -9
16 0 28 17 47 68 19 49 13 58 -8 10 l-13 -33 -16 35 c-11 23 -14 26 -10 10z"/>
<path d="M2512 98 c-27 -27 0 -77 34 -64 10 4 14 2 11 -6 -2 -7 -16 -12 -31
-11 -14 1 -24 -2 -21 -8 9 -13 39 -11 53 3 7 7 12 30 12 53 0 35 -3 41 -23 43
-13 1 -29 -4 -35 -10z m43 -28 c0 -29 -32 -41 -41 -16 -9 24 4 48 23 44 12 -2
18 -12 18 -28z"/>
<path d="M2601 65 c2 -33 3 -35 6 -10 2 17 11 35 20 42 13 10 13 12 -6 10 -18
-1 -21 -7 -20 -42z"/>
<path d="M2650 95 c-26 -31 13 -82 44 -56 19 16 21 42 4 59 -16 16 -33 15 -48
-3z m45 -25 c0 -29 -32 -41 -41 -16 -9 24 4 48 23 44 12 -2 18 -12 18 -28z"/>
<path d="M2733 75 c2 -38 4 -40 35 -41 31 -1 32 0 31 40 l-2 41 -6 -35 c-4
-26 -11 -35 -26 -35 -15 0 -22 9 -27 35 l-6 35 1 -40z"/>
<path d="M2821 51 c1 -32 4 -48 7 -36 4 11 16 20 26 20 51 0 43 69 -8 71 -25
1 -26 -1 -25 -55z m54 19 c0 -29 -32 -41 -41 -16 -9 24 4 48 23 44 12 -2 18
-12 18 -28z"/>
</g>
</svg>
