<svg id="Layer_1" data-name="Layer 1" xmlns="http://www.w3.org/2000/svg" viewBox="0 0 1362 751.17"><defs><style>.cls-1{fill:#3ac7a3;}</style></defs><path class="cls-1" d="M1,36.15A23.45,23.45,0,0,1,8,19a23.23,23.23,0,0,1,17.09-7.07H176.8A23.22,23.22,0,0,1,193.87,19a23.43,23.43,0,0,1,7,17.16V445.06q0,39.38,12.67,65.13T245,550.57a116.85,116.85,0,0,0,40.06,20.7q21.29,6,38.52,6.06t38.52-6.06a111.76,111.76,0,0,0,39.54-20.7q18.24-14.62,30.92-40.38t12.69-65.13V36.15a23.41,23.41,0,0,1,7-17.16,23.25,23.25,0,0,1,17.09-7.07h151.7A23.21,23.21,0,0,1,638.11,19a23.43,23.43,0,0,1,7,17.16V445.06q0,71.7-22.69,130.24t-65,100q-42.36,41.43-101.81,64.11T323.58,762.09q-72.6,0-132.06-22.73T89.71,675.25q-42.36-41.38-65.53-100T1,445.06Z" transform="translate(-1 -10.91)"/><path class="cls-1" d="M1008.9,551.07H920.84a24.14,24.14,0,0,0-24.29,24.23V725.74a23.44,23.44,0,0,1-7,17.17A23.19,23.19,0,0,1,872.44,750H720.74a24,24,0,0,1-24.1-24.23V35.14A23.39,23.39,0,0,1,703.7,18a23.41,23.41,0,0,1,17.17-7.07h308.95q56.54,0,106.52,21.21a267.32,267.32,0,0,1,86.82,58.56,286.7,286.7,0,0,1,58.56,86.82q21.71,49.49,21.71,106T1285.21,389A226.61,226.61,0,0,1,1230,473.84q-36.93,35.85-92.1,56.53T1008.9,551.07Zm7.37-354.38H920.91a23.57,23.57,0,0,0-17.26,7,23.1,23.1,0,0,0-7.1,17.06v118.4a23.08,23.08,0,0,0,7.1,17.07,23.57,23.57,0,0,0,17.26,7h108.55q38.54,0,56.3-24.57T1103.52,283a93.1,93.1,0,0,0-5.58-31.62,79.86,79.86,0,0,0-16.74-27.59,86.45,86.45,0,0,0-27.38-19.58Q1037.58,196.68,1016.27,196.69Z" transform="translate(-1 -10.91)"/><path class="cls-1" d="M1363,653.05a103.69,103.69,0,0,1-104,104,99.65,99.65,0,0,1-39.89-8.06,104.43,104.43,0,0,1-32.81-22.22,104.68,104.68,0,0,1-30.29-73.7,95.62,95.62,0,0,1,8.08-39.38,106.44,106.44,0,0,1,22.21-32.31,104.9,104.9,0,0,1,32.81-22.21,99.49,99.49,0,0,1,39.89-8.08,104.68,104.68,0,0,1,73.7,30.29,107.15,107.15,0,0,1,22.21,32.31A95.94,95.94,0,0,1,1363,653.05Z" transform="translate(-1 -10.91)"/></svg>