<?xml version="1.0" encoding="utf-8"?>
<!-- Generator: Adobe Illustrator 25.4.1, SVG Export Plug-In . SVG Version: 6.00 Build 0)  -->
<svg version="1.1" id="Layer_1" xmlns="http://www.w3.org/2000/svg" xmlns:xlink="http://www.w3.org/1999/xlink" x="0px" y="0px"
	 viewBox="0 0 1366 768" style="enable-background:new 0 0 1366 768;" xml:space="preserve">
<style type="text/css">
	.st0{fill:#3AC7A3;}
</style>
<g>
	<path d="M66.77,420.15c-16.92-16.36-25.38-39.3-25.38-68.82V242.75h66.56v106.61c0,14.48,2.58,25.01,7.76,31.59
		c5.17,6.58,12.64,9.87,22.42,9.87c9.77,0,17.25-3.29,22.42-9.87c5.17-6.58,7.76-17.11,7.76-31.59V242.75h65.43v108.59
		c0,29.52-8.46,52.46-25.38,68.82s-40.52,24.54-70.79,24.54C107.29,444.69,83.7,436.51,66.77,420.15z"/>
	<path d="M406.92,251.77c13.54,6.02,23.97,14.67,31.31,25.95c7.33,11.28,11,24.45,11,39.49c0,15.05-3.67,28.2-11,39.49
		c-7.33,11.28-17.77,19.93-31.31,25.95c-13.54,6.02-29.43,9.03-47.67,9.03h-28.49v48.51H264.2V242.75h95.05
		C377.49,242.75,393.38,245.76,406.92,251.77z M375.33,334.27c4.51-4.04,6.77-9.73,6.77-17.06c0-7.33-2.26-13.02-6.77-17.06
		c-4.51-4.04-11.28-6.06-20.31-6.06h-24.26v46.26h24.26C364.05,340.33,370.82,338.32,375.33,334.27z"/>
	<path class="st0" d="M466.85,432.7c-7.05-6.86-10.58-15.65-10.58-26.37s3.53-19.41,10.58-26.09c7.05-6.67,15.94-10.01,26.65-10.01
		s19.6,3.34,26.65,10.01c7.05,6.68,10.58,15.37,10.58,26.09s-3.53,19.51-10.58,26.37c-7.05,6.87-15.94,10.29-26.65,10.29
		S473.91,439.57,466.85,432.7z"/>
</g>
<g>
	<path d="M669.64,408.91h-74.26l-16.28,36.03h-10.06l58.89-128.03h9.33l58.89,128.03H686.1L669.64,408.91z M666.16,401.04
		l-33.65-73.89l-33.47,73.89H666.16z"/>
	<path d="M809,381.47h8.96v47.92c-5.61,5.37-12.41,9.45-20.39,12.25c-7.99,2.81-16.43,4.21-25.33,4.21
		c-12.68,0-24.11-2.8-34.29-8.41c-10.18-5.61-18.17-13.35-23.96-23.23c-5.79-9.88-8.69-20.97-8.69-33.29
		c0-12.31,2.9-23.41,8.69-33.29c5.79-9.88,13.78-17.62,23.96-23.23c10.18-5.61,21.67-8.41,34.47-8.41c9.39,0,18.02,1.49,25.88,4.48
		c7.86,2.99,14.6,7.35,20.21,13.08l-5.85,6.22c-5.37-5.36-11.37-9.24-18.02-11.61c-6.65-2.38-13.99-3.57-22.04-3.57
		c-10.97,0-20.88,2.44-29.72,7.32c-8.84,4.88-15.76,11.61-20.76,20.21c-5,8.6-7.5,18.2-7.5,28.81c0,10.49,2.53,20.03,7.59,28.62
		c5.06,8.6,11.98,15.36,20.76,20.3s18.65,7.41,29.63,7.41c14.63,0,26.76-3.9,36.4-11.71V381.47z"/>
	<path d="M947.27,436.53v8.41h-88.34V316.91h85.59v8.41h-76.27v50.48h68.22v8.23h-68.22v52.49H947.27z"/>
	<path d="M1085.54,316.91v128.03h-7.68l-87.24-111.2v111.2h-9.33V316.91h7.86l87.06,111.2v-111.2H1085.54z"/>
	<path d="M1150.37,437.44c-10.06-5.61-17.99-13.35-23.78-23.23c-5.79-9.88-8.69-20.97-8.69-33.29c0-12.31,2.89-23.41,8.69-33.29
		c5.79-9.88,13.72-17.62,23.78-23.23c10.06-5.61,21.37-8.41,33.93-8.41c9.26,0,17.8,1.49,25.61,4.48
		c7.8,2.99,14.45,7.41,19.94,13.26l-5.85,6.04c-10.24-10.12-23.35-15.18-39.32-15.18c-10.73,0-20.48,2.44-29.26,7.32
		c-8.78,4.88-15.67,11.61-20.67,20.21c-5,8.6-7.5,18.2-7.5,28.81s2.5,20.21,7.5,28.81c5,8.6,11.89,15.33,20.67,20.21
		c8.78,4.88,18.53,7.32,29.26,7.32c15.85,0,28.96-5.12,39.32-15.36l5.85,6.04c-5.49,5.85-12.16,10.3-20.03,13.35
		c-7.86,3.05-16.37,4.57-25.51,4.57C1171.74,445.85,1160.43,443.05,1150.37,437.44z"/>
	<path d="M1297.51,400.86v44.08h-9.33v-44.08l-51.58-83.95h10.24l46.27,75.35l46.27-75.35h9.69L1297.51,400.86z"/>
</g>
<g>


</g>
</svg>
