<?xml version="1.0" encoding="utf-8"?>
<!-- Generator: Adobe Illustrator 25.4.1, SVG Export Plug-In . SVG Version: 6.00 Build 0)  -->
<svg version="1.1" id="Layer_1" xmlns="http://www.w3.org/2000/svg" xmlns:xlink="http://www.w3.org/1999/xlink" x="0px" y="0px"
	 viewBox="0 0 1366 768" style="enable-background:new 0 0 1366 768;" xml:space="preserve">
<style type="text/css">
	.st0{fill:#3AC7A3;}
</style>
<g>
	<path d="M66.77,420.15c-16.92-16.36-25.38-39.3-25.38-68.82V242.75h66.56v106.61c0,14.48,2.58,25.01,7.76,31.59
		c5.17,6.58,12.64,9.87,22.42,9.87c9.77,0,17.25-3.29,22.42-9.87c5.17-6.58,7.76-17.11,7.76-31.59V242.75h65.43v108.59
		c0,29.52-8.46,52.46-25.38,68.82s-40.52,24.54-70.79,24.54C107.29,444.69,83.7,436.51,66.77,420.15z"/>
	<path d="M406.92,251.77c13.54,6.02,23.97,14.67,31.31,25.95c7.33,11.28,11,24.45,11,39.49c0,15.05-3.67,28.2-11,39.49
		c-7.33,11.28-17.77,19.93-31.31,25.95c-13.54,6.02-29.43,9.03-47.67,9.03h-28.49v48.51H264.2V242.75h95.05
		C377.49,242.75,393.38,245.76,406.92,251.77z M375.33,334.27c4.51-4.04,6.77-9.73,6.77-17.06c0-7.33-2.26-13.02-6.77-17.06
		c-4.51-4.04-11.28-6.06-20.31-6.06h-24.26v46.26h24.26C364.05,340.33,370.82,338.32,375.33,334.27z"/>
	<path class="st0" d="M466.85,432.7c-7.05-6.86-10.58-15.65-10.58-26.37s3.53-19.41,10.58-26.09c7.05-6.67,15.94-10.01,26.65-10.01
		s19.6,3.34,26.65,10.01c7.05,6.68,10.58,15.37,10.58,26.09s-3.53,19.51-10.58,26.37c-7.05,6.87-15.94,10.29-26.65,10.29
		S473.91,439.57,466.85,432.7z"/>
</g>
<g>
	<path d="M669.64,408.91h-74.26l-16.28,36.03h-10.06l58.89-128.03h9.33l58.89,128.03H686.1L669.64,408.91z M666.16,401.04
		l-33.65-73.89l-33.47,73.89H666.16z"/>
	<path d="M809,381.47h8.96v47.92c-5.61,5.37-12.41,9.45-20.39,12.25c-7.99,2.81-16.43,4.21-25.33,4.21
		c-12.68,0-24.11-2.8-34.29-8.41c-10.18-5.61-18.17-13.35-23.96-23.23c-5.79-9.88-8.69-20.97-8.69-33.29
		c0-12.31,2.9-23.41,8.69-33.29c5.79-9.88,13.78-17.62,23.96-23.23c10.18-5.61,21.67-8.41,34.47-8.41c9.39,0,18.02,1.49,25.88,4.48
		c7.86,2.99,14.6,7.35,20.21,13.08l-5.85,6.22c-5.37-5.36-11.37-9.24-18.02-11.61c-6.65-2.38-13.99-3.57-22.04-3.57
		c-10.97,0-20.88,2.44-29.72,7.32c-8.84,4.88-15.76,11.61-20.76,20.21c-5,8.6-7.5,18.2-7.5,28.81c0,10.49,2.53,20.03,7.59,28.62
		c5.06,8.6,11.98,15.36,20.76,20.3s18.65,7.41,29.63,7.41c14.63,0,26.76-3.9,36.4-11.71V381.47z"/>
	<path d="M947.27,436.53v8.41h-88.34V316.91h85.59v8.41h-76.27v50.48h68.22v8.23h-68.22v52.49H947.27z"/>
	<path d="M1085.54,316.91v128.03h-7.68l-87.24-111.2v111.2h-9.33V316.91h7.86l87.06,111.2v-111.2H1085.54z"/>
	<path d="M1150.37,437.44c-10.06-5.61-17.99-13.35-23.78-23.23c-5.79-9.88-8.69-20.97-8.69-33.29c0-12.31,2.89-23.41,8.69-33.29
		c5.79-9.88,13.72-17.62,23.78-23.23c10.06-5.61,21.37-8.41,33.93-8.41c9.26,0,17.8,1.49,25.61,4.48
		c7.8,2.99,14.45,7.41,19.94,13.26l-5.85,6.04c-10.24-10.12-23.35-15.18-39.32-15.18c-10.73,0-20.48,2.44-29.26,7.32
		c-8.78,4.88-15.67,11.61-20.67,20.21c-5,8.6-7.5,18.2-7.5,28.81s2.5,20.21,7.5,28.81c5,8.6,11.89,15.33,20.67,20.21
		c8.78,4.88,18.53,7.32,29.26,7.32c15.85,0,28.96-5.12,39.32-15.36l5.85,6.04c-5.49,5.85-12.16,10.3-20.03,13.35
		c-7.86,3.05-16.37,4.57-25.51,4.57C1171.74,445.85,1160.43,443.05,1150.37,437.44z"/>
	<path d="M1297.51,400.86v44.08h-9.33v-44.08l-51.58-83.95h10.24l46.27,75.35l46.27-75.35h9.69L1297.51,400.86z"/>
</g>
<g>
	<path d="M969.45,506.77c2.58,1.46,4.59,3.52,6.06,6.16c1.46,2.64,2.19,5.64,2.19,9.01c0,3.36-0.73,6.35-2.19,8.97
		c-1.46,2.62-3.48,4.67-6.06,6.16c-2.58,1.48-5.46,2.23-8.65,2.23c-3.06,0-5.82-0.73-8.29-2.19c-2.47-1.46-4.38-3.5-5.73-6.12v8.06
		h-3.14v-48.6h3.28v22.21c1.35-2.53,3.25-4.51,5.7-5.93c2.45-1.42,5.17-2.13,8.19-2.13C963.99,504.57,966.87,505.3,969.45,506.77z
		 M967.68,534.51c2.1-1.22,3.74-2.93,4.95-5.11c1.2-2.18,1.8-4.67,1.8-7.47c0-2.79-0.6-5.28-1.8-7.47c-1.2-2.18-2.85-3.89-4.95-5.11
		c-2.1-1.22-4.45-1.83-7.07-1.83s-4.97,0.61-7.04,1.83c-2.07,1.22-3.71,2.93-4.91,5.11c-1.2,2.18-1.8,4.67-1.8,7.47
		c0,2.79,0.6,5.28,1.8,7.47c1.2,2.18,2.84,3.89,4.91,5.11s4.42,1.83,7.04,1.83S965.58,535.73,967.68,534.51z"/>
	<path d="M1014.32,504.83l-17.55,38.84c-1.31,3.01-2.83,5.15-4.55,6.42c-1.73,1.27-3.77,1.9-6.12,1.9c-1.57,0-3.05-0.26-4.42-0.79
		c-1.38-0.52-2.54-1.29-3.5-2.29l1.64-2.49c1.75,1.79,3.86,2.69,6.35,2.69c1.66,0,3.08-0.46,4.26-1.38
		c1.18-0.92,2.27-2.49,3.28-4.72l1.83-4.13l-15.39-34.06h3.47l13.69,30.59l13.69-30.59H1014.32z"/>
	<path d="M1040.58,534.38c-3.93-3.8-5.9-9.13-5.9-15.98v-25.22h15.46v24.76c0,3.36,0.6,5.81,1.8,7.34c1.2,1.53,2.94,2.29,5.21,2.29
		s4.01-0.76,5.21-2.29c1.2-1.53,1.8-3.97,1.8-7.34v-24.76h15.2v25.22c0,6.86-1.96,12.18-5.89,15.98c-3.93,3.8-9.41,5.7-16.44,5.7
		C1049.99,540.07,1044.51,538.17,1040.58,534.38z"/>
	<path d="M1119.58,495.27c3.14,1.4,5.57,3.41,7.27,6.03s2.55,5.68,2.55,9.17c0,3.5-0.85,6.55-2.55,9.17s-4.13,4.63-7.27,6.03
		c-3.14,1.4-6.83,2.1-11.07,2.1h-6.62v11.27h-15.46v-45.85h22.08C1112.75,493.17,1116.44,493.87,1119.58,495.27z M1112.25,514.43
		c1.05-0.94,1.57-2.26,1.57-3.96s-0.52-3.02-1.57-3.96c-1.05-0.94-2.62-1.41-4.72-1.41h-5.63v10.74h5.63
		C1109.62,515.84,1111.2,515.37,1112.25,514.43z"/>
	<path class="st0" d="M1133.5,537.29c-1.64-1.59-2.46-3.63-2.46-6.12s0.82-4.51,2.46-6.06c1.64-1.55,3.7-2.33,6.19-2.33
		s4.55,0.78,6.19,2.33c1.64,1.55,2.46,3.57,2.46,6.06s-0.82,4.53-2.46,6.12c-1.64,1.59-3.7,2.39-6.19,2.39
		S1135.14,538.88,1133.5,537.29z"/>
	<path d="M1187.38,504.83v30.53c0,5.68-1.38,9.87-4.13,12.58c-2.75,2.71-6.9,4.06-12.45,4.06c-3.14,0-6.11-0.48-8.91-1.44
		c-2.79-0.96-5.04-2.29-6.75-4l1.77-2.49c1.7,1.57,3.75,2.79,6.16,3.67c2.4,0.87,4.96,1.31,7.66,1.31c4.54,0,7.9-1.08,10.09-3.24
		c2.18-2.16,3.28-5.51,3.28-10.05v-5.76c-1.4,2.49-3.34,4.41-5.83,5.76c-2.49,1.35-5.29,2.03-8.38,2.03c-3.19,0-6.08-0.71-8.68-2.13
		c-2.6-1.42-4.64-3.4-6.12-5.93c-1.48-2.53-2.23-5.39-2.23-8.58c0-3.19,0.74-6.05,2.23-8.58c1.48-2.53,3.53-4.5,6.12-5.9
		c2.6-1.4,5.49-2.1,8.68-2.1c3.14,0,5.98,0.7,8.52,2.1c2.53,1.4,4.48,3.36,5.83,5.9v-7.73H1187.38z M1177.36,533.1
		c2.14-1.16,3.81-2.77,5.01-4.85c1.2-2.07,1.8-4.44,1.8-7.11c0-2.66-0.6-5.02-1.8-7.07c-1.2-2.05-2.87-3.66-5.01-4.82
		c-2.14-1.16-4.54-1.74-7.21-1.74c-2.66,0-5.05,0.58-7.17,1.74c-2.12,1.16-3.78,2.76-4.98,4.82s-1.8,4.41-1.8,7.07
		c0,2.66,0.6,5.03,1.8,7.11s2.86,3.69,4.98,4.85s4.51,1.74,7.17,1.74C1172.81,534.83,1175.22,534.26,1177.36,533.1z"/>
	<path d="M1209.32,506.57c2.23-1.33,4.93-2,8.12-2v3.21l-0.79-0.07c-3.8,0-6.77,1.19-8.91,3.57c-2.14,2.38-3.21,5.69-3.21,9.92
		v17.82h-3.28v-34.19h3.14v7.47C1205.46,509.81,1207.09,507.9,1209.32,506.57z"/>
	<path d="M1230.77,537.06c-2.6-1.48-4.64-3.55-6.12-6.19c-1.48-2.64-2.23-5.62-2.23-8.94c0-3.32,0.74-6.3,2.23-8.94
		c1.48-2.64,3.53-4.71,6.12-6.19c2.6-1.48,5.51-2.23,8.75-2.23c3.23,0,6.15,0.74,8.75,2.23c2.6,1.49,4.64,3.55,6.12,6.19
		c1.48,2.64,2.23,5.62,2.23,8.94c0,3.32-0.74,6.3-2.23,8.94c-1.48,2.64-3.53,4.71-6.12,6.19c-2.6,1.48-5.51,2.23-8.75,2.23
		C1236.29,539.29,1233.37,538.55,1230.77,537.06z M1246.56,534.51c2.07-1.22,3.71-2.93,4.91-5.11s1.8-4.67,1.8-7.47
		c0-2.79-0.6-5.28-1.8-7.47c-1.2-2.18-2.84-3.89-4.91-5.11c-2.08-1.22-4.42-1.83-7.04-1.83s-4.97,0.61-7.04,1.83
		c-2.07,1.22-3.71,2.93-4.91,5.11c-1.2,2.18-1.8,4.67-1.8,7.47c0,2.79,0.6,5.28,1.8,7.47s2.84,3.89,4.91,5.11s4.42,1.83,7.04,1.83
		S1244.49,535.73,1246.56,534.51z"/>
	<path d="M1296.71,504.83v34.19h-3.14v-7.34c-1.14,2.4-2.82,4.27-5.04,5.6c-2.23,1.33-4.85,2-7.86,2c-4.45,0-7.95-1.24-10.48-3.73
		c-2.53-2.49-3.8-6.07-3.8-10.74v-19.98h3.28v19.72c0,3.84,0.98,6.77,2.95,8.78c1.96,2.01,4.74,3.01,8.32,3.01
		c3.84,0,6.89-1.2,9.14-3.6c2.25-2.4,3.37-5.63,3.37-9.7v-18.21H1296.71z"/>
	<path d="M1336.4,506.8c2.58,1.49,4.59,3.54,6.06,6.16c1.46,2.62,2.19,5.61,2.19,8.97c0,3.36-0.73,6.37-2.19,9.01
		c-1.46,2.64-3.48,4.7-6.06,6.16c-2.58,1.46-5.46,2.19-8.65,2.19c-3.01,0-5.74-0.71-8.19-2.13c-2.45-1.42-4.35-3.39-5.7-5.93v20.5
		h-3.28v-46.9h3.14v8.06c1.35-2.62,3.26-4.66,5.73-6.12c2.47-1.46,5.23-2.2,8.29-2.2C1330.94,504.57,1333.82,505.31,1336.4,506.8z
		 M1334.63,534.51c2.1-1.22,3.74-2.93,4.95-5.11c1.2-2.18,1.8-4.67,1.8-7.47c0-2.79-0.6-5.28-1.8-7.47
		c-1.2-2.18-2.85-3.89-4.95-5.11c-2.1-1.22-4.45-1.83-7.07-1.83s-4.97,0.61-7.04,1.83c-2.07,1.22-3.71,2.93-4.91,5.11
		c-1.2,2.18-1.8,4.67-1.8,7.47c0,2.79,0.6,5.28,1.8,7.47c1.2,2.18,2.84,3.89,4.91,5.11s4.42,1.83,7.04,1.83
		S1332.54,535.73,1334.63,534.51z"/>
</g>
</svg>
