<svg xmlns="http://www.w3.org/2000/svg" data-name="Layer 1" viewBox="0 0 512 640" x="0px" y="0px"><title>Product Website</title><g data-name="Group"><polygon data-name="Path" points="249 276.238 183 254.897 183 349.618 249 370.959 249 276.238"/><path data-name="Compound Path" d="M59.448,440h393.1C466.028,440,477,428.789,477,414.458V173H35V414.458C35,428.789,45.967,440,59.448,440ZM169,245.284a6.913,6.913,0,0,1,4.754-6.662l80.076-25.856a6.937,6.937,0,0,1,4.275,0l80.13,25.856A6.923,6.923,0,0,1,343,245.284V354.716a6.919,6.919,0,0,1-4.759,6.662l-80.082,25.856a6.893,6.893,0,0,1-4.264,0l-80.13-25.856A6.923,6.923,0,0,1,169,354.716Z"/><polygon data-name="Path" points="313.367 245.284 256 226.783 198.632 245.284 256 263.785 313.367 245.284"/><polygon data-name="Path" points="263 370.959 329 349.618 329 254.897 263 276.238 263 370.959"/><path data-name="Path" d="M75.172,99.044c-7.7,0-13.966,6.727-13.966,14.994s6.265,14.994,13.966,14.994,13.966-6.726,13.966-14.994S82.873,99.044,75.172,99.044Z"/><path data-name="Path" d="M211.448,99.044c-7.7,0-13.966,6.727-13.966,14.994s6.265,14.994,13.966,14.994,13.966-6.726,13.966-14.994S219.149,99.044,211.448,99.044Z"/><path data-name="Compound Path" d="M477,97.542C477,83.211,466.028,72,452.548,72H59.448C45.967,72,35,83.211,35,97.542V159H477ZM75.172,143.032c-15.421,0-27.966-13.007-27.966-28.994S59.751,85.044,75.172,85.044s27.966,13.007,27.966,28.994S90.593,143.032,75.172,143.032Zm68.138,0c-15.421,0-27.966-13.007-27.966-28.994s12.545-28.994,27.966-28.994,27.966,13.007,27.966,28.994S158.73,143.032,143.31,143.032Zm68.138,0c-15.421,0-27.966-13.007-27.966-28.994s12.545-28.994,27.966-28.994,27.966,13.007,27.966,28.994S226.869,143.032,211.448,143.032Z"/><path data-name="Path" d="M143.31,99.044c-7.7,0-13.966,6.727-13.966,14.994s6.265,14.994,13.966,14.994,13.966-6.726,13.966-14.994S151.011,99.044,143.31,99.044Z"/></g><text x="0" y="527" fill="#000000" font-size="5px" font-weight="bold" font-family="'Helvetica Neue', Helvetica, Arial-Unicode, Arial, Sans-serif">Created by Kiran Shastry</text><text x="0" y="532" fill="#000000" font-size="5px" font-weight="bold" font-family="'Helvetica Neue', Helvetica, Arial-Unicode, Arial, Sans-serif">from the Noun Project</text></svg>