<svg xmlns="http://www.w3.org/2000/svg" data-name="Layer 1" viewBox="0 0 512 640" x="0px" y="0px"><title>Product Laptop</title><g data-name="Group"><path data-name="Compound Path" d="M91,323H421V124H91Zm78-152.716a6.913,6.913,0,0,1,4.754-6.662l80.076-25.856a6.937,6.937,0,0,1,4.275,0l80.13,25.856A6.923,6.923,0,0,1,343,170.284V279.716a6.917,6.917,0,0,1-4.759,6.662l-80.082,25.856a6.893,6.893,0,0,1-4.264,0l-80.13-25.856A6.923,6.923,0,0,1,169,279.716Z"/><polygon data-name="Path" points="313.367 170.284 256 151.783 198.633 170.284 256 188.785 313.367 170.284"/><polygon data-name="Path" points="263 295.959 329 274.618 329 179.897 263 201.238 263 295.959"/><polygon data-name="Path" points="249 201.238 183 179.897 183 274.618 249 295.959 249 201.238"/><path data-name="Path" d="M311.709,380.7a47.274,47.274,0,0,1-34.56,15.3h-42.3a47.274,47.274,0,0,1-34.56-15.3l-6.039-6.7H30v23.589C30,415.785,44.818,431,63.015,431h385.97c18.2,0,33.015-15.215,33.015-33.411V374H317.748Z"/><path data-name="Compound Path" d="M202.467,362.289l8.119,8.842A33.317,33.317,0,0,0,234.851,382h42.3a33.275,33.275,0,0,0,24.265-10.827l8.119-9A6.925,6.925,0,0,1,314.681,360H461V114.411C461,96.215,446.05,81,427.854,81H84.146C65.95,81,51,96.215,51,114.411V360H197.319A7.035,7.035,0,0,1,202.467,362.289ZM77,330V117a7,7,0,0,1,7-7H429a7,7,0,0,1,7,7V330a7,7,0,0,1-7,7H84A7,7,0,0,1,77,330Z"/></g><text x="0" y="527" fill="#000000" font-size="5px" font-weight="bold" font-family="'Helvetica Neue', Helvetica, Arial-Unicode, Arial, Sans-serif">Created by Kiran Shastry</text><text x="0" y="532" fill="#000000" font-size="5px" font-weight="bold" font-family="'Helvetica Neue', Helvetica, Arial-Unicode, Arial, Sans-serif">from the Noun Project</text></svg>