<svg xmlns="http://www.w3.org/2000/svg" data-name="Layer 1" viewBox="0 0 512 640" x="0px" y="0px"><title>Product  Ideas</title><g data-name="Group"><path data-name="Path" d="M413,337h14V303.645c0-3.866-3.628-6.645-7.494-6.645H263V267.172l14.685,14.913a6.863,6.863,0,0,0,9.785,0,7,7,0,0,0-.056-9.9l-26.806-26.778a7.025,7.025,0,0,0-9.921,0l-26.782,26.778a7,7,0,0,0,4.948,11.95,7.511,7.511,0,0,0,5.177-2.049L249,267.342V297H93.473C89.606,297,86,299.779,86,303.645V336h14V311H249v26h14V311H413Z"/><path data-name="Path" d="M197.363,136.333a57.869,57.869,0,0,0,15.892,41.139,37.2,37.2,0,0,1,10.184,24.258,7.206,7.206,0,0,0,1.2,14.27h62.8a7.164,7.164,0,0,0,7-7.19,7.086,7.086,0,0,0-6.464-7.068c.254-8.831,3.8-17.08,10.477-24.07a59.16,59.16,0,0,0,16.049-40.335,58.58,58.58,0,0,0-117.143-1Z"/><path data-name="Path" d="M236.854,223a7,7,0,0,0,0,14h38.378a7,7,0,0,0,0-14Z"/><path data-name="Path" d="M262,60.774V39.4a7,7,0,1,0-14,0v21.37a7,7,0,0,0,14,0Z"/><path data-name="Path" d="M312.094,88.759l15.7-14.828a7,7,0,0,0-9.613-10.177l-15.7,14.828a7,7,0,1,0,9.614,10.177Z"/><path data-name="Path" d="M194.084,61.529a7,7,0,0,0-9.971,9.828l15.046,15.265a7,7,0,0,0,9.971-9.828Z"/><polygon data-name="Path" points="200 463.149 248 478.769 248 406.896 200 391.275 200 463.149"/><polygon data-name="Path" points="296.629 381.663 256 368.56 215.371 381.663 256 394.765 296.629 381.663"/><polygon data-name="Path" points="312 391.275 262 407.541 262 479.414 312 463.149 312 391.275"/><polygon data-name="Path" points="430 479.596 481 463.149 481 391.275 430 407.722 430 479.596"/><polygon data-name="Path" points="416 406.714 368 391.275 368 463.149 416 478.588 416 406.714"/><polygon data-name="Path" points="465.192 381.663 424.563 368.56 383.935 381.663 424.563 394.765 465.192 381.663"/><polygon data-name="Path" points="80 407.078 31 391.275 31 463.149 80 478.951 80 407.078"/><polygon data-name="Path" points="144 391.275 94 407.359 94 479.233 144 463.149 144 391.275"/><polygon data-name="Path" points="87.437 368.56 46.808 381.663 87.437 394.765 128.065 381.663 87.437 368.56"/></g><text x="0" y="527" fill="#000000" font-size="5px" font-weight="bold" font-family="'Helvetica Neue', Helvetica, Arial-Unicode, Arial, Sans-serif">Created by Kiran Shastry</text><text x="0" y="532" fill="#000000" font-size="5px" font-weight="bold" font-family="'Helvetica Neue', Helvetica, Arial-Unicode, Arial, Sans-serif">from the Noun Project</text></svg>