<svg xmlns="http://www.w3.org/2000/svg" data-name="Layer 1" viewBox="0 0 512 640" x="0px" y="0px"><title>Product Mobile</title><g data-name="Group"><polygon data-name="Path" points="263 326.959 329 305.618 329 210.897 263 232.238 263 326.959"/><path data-name="Path" d="M256,445.565a12.657,12.657,0,1,0-12.656-12.656A12.67,12.67,0,0,0,256,445.565Z"/><path data-name="Compound Path" d="M135,447.651A22.6,22.6,0,0,0,157.718,470H354.282A22.6,22.6,0,0,0,377,447.651V396H135Zm121-41.4a26.657,26.657,0,1,1-26.656,26.657A26.687,26.687,0,0,1,256,406.252Z"/><polygon data-name="Path" points="249 232.238 183 210.897 183 305.618 249 326.959 249 232.238"/><polygon data-name="Path" points="313.367 201.284 256 182.783 198.633 201.284 256 219.785 313.367 201.284"/><path data-name="Compound Path" d="M135,102H377V64.349A22.6,22.6,0,0,0,354.282,42H157.718A22.6,22.6,0,0,0,135,64.349Zm89.059-40h63.882a7,7,0,0,1,0,14H224.059a7,7,0,1,1,0-14Z"/><path data-name="Compound Path" d="M135,382H377V116H135Zm34-180.716a6.913,6.913,0,0,1,4.754-6.662l80.076-25.856a6.937,6.937,0,0,1,4.275,0l80.13,25.856A6.923,6.923,0,0,1,343,201.284V310.716a6.917,6.917,0,0,1-4.759,6.662l-80.082,25.856a6.893,6.893,0,0,1-4.264,0l-80.13-25.856A6.923,6.923,0,0,1,169,310.716Z"/></g><text x="0" y="527" fill="#000000" font-size="5px" font-weight="bold" font-family="'Helvetica Neue', Helvetica, Arial-Unicode, Arial, Sans-serif">Created by Kiran Shastry</text><text x="0" y="532" fill="#000000" font-size="5px" font-weight="bold" font-family="'Helvetica Neue', Helvetica, Arial-Unicode, Arial, Sans-serif">from the Noun Project</text></svg>