<svg xmlns="http://www.w3.org/2000/svg" data-name="Layer 1" viewBox="0 0 512 640" x="0px" y="0px"><title>Growth</title><g data-name="Group"><path data-name="Path" d="M209.754,206.143a7,7,0,0,0,6.954,6.279,7.2,7.2,0,0,0,.73-.038c1.52-.157,37.725-4.094,82.446-24.752,38.1-17.6,89.091-50.962,123.844-111.476l10.287,51.434a7,7,0,0,0,13.728-2.746L433.92,55.728a8.171,8.171,0,0,0-11.05-4.913L356.53,64.44a7,7,0,0,0,2.817,13.713l53.385-10.965A247.947,247.947,0,0,1,361.4,131.1a272.8,272.8,0,0,1-66.931,43.606c-42.685,19.806-78.126,23.711-78.479,23.748A7,7,0,0,0,209.754,206.143Z"/><polygon data-name="Path" points="182.949 271.321 122.577 251.852 62.204 271.321 122.577 290.791 182.949 271.321"/><polygon data-name="Path" points="199 280.934 128 303.753 128 402.575 199 379.757 199 280.934"/><polygon data-name="Path" points="46 379.757 114 401.558 114 302.735 46 280.934 46 379.757"/><path data-name="Path" d="M480.689,448H462V170H428V448H373V236H339V448H285V280H251V448H31.311a7,7,0,1,0,0,14H480.689a7,7,0,1,0,0-14Z"/></g><text x="0" y="527" fill="#000000" font-size="5px" font-weight="bold" font-family="'Helvetica Neue', Helvetica, Arial-Unicode, Arial, Sans-serif">Created by Kiran Shastry</text><text x="0" y="532" fill="#000000" font-size="5px" font-weight="bold" font-family="'Helvetica Neue', Helvetica, Arial-Unicode, Arial, Sans-serif">from the Noun Project</text></svg>