<svg xmlns="http://www.w3.org/2000/svg" data-name="Layer 1" viewBox="0 0 512 640" x="0px" y="0px"><title>Comment</title><g data-name="Group"><path data-name="Path" d="M118.207,366H345V323H159.945A7.066,7.066,0,0,1,153,315.87V159H53V411.448l61.333-44.115A6.42,6.42,0,0,1,118.207,366Z"/><polygon data-name="Path" points="258 246.03 312 263.442 312 185.967 258 168.556 258 246.03"/><polygon data-name="Path" points="318.549 144.517 273.817 158.943 318.549 173.369 363.281 158.943 318.549 144.517"/><path data-name="Compound Path" d="M397.667,310.245,459,354.272V101H167V309H393.793A6.337,6.337,0,0,1,397.667,310.245ZM393,251.128a6.962,6.962,0,0,1-4.808,6.662L320.7,279.571a7,7,0,0,1-4.3,0L248.857,257.79A7,7,0,0,1,244,251.128V158.943a7,7,0,0,1,4.851-6.662L316.39,130.5a6.972,6.972,0,0,1,4.286,0l67.516,21.781A6.961,6.961,0,0,1,393,158.943Z"/><polygon data-name="Path" points="326 263.151 379 246.03 379 168.556 326 185.676 326 263.151"/></g><text x="0" y="527" fill="#000000" font-size="5px" font-weight="bold" font-family="'Helvetica Neue', Helvetica, Arial-Unicode, Arial, Sans-serif">Created by Kiran Shastry</text><text x="0" y="532" fill="#000000" font-size="5px" font-weight="bold" font-family="'Helvetica Neue', Helvetica, Arial-Unicode, Arial, Sans-serif">from the Noun Project</text></svg>