<svg xmlns="http://www.w3.org/2000/svg" data-name="Layer 1" viewBox="0 0 512 640" x="0px" y="0px"><title>Product Network</title><g data-name="Group"><path data-name="Path" d="M364.352,491.169a34.217,34.217,0,1,0-34.217-34.216A34.255,34.255,0,0,0,364.352,491.169Z"/><path data-name="Path" d="M400.872,285.217a28.034,28.034,0,1,0,28.033-28.034A28.064,28.064,0,0,0,400.872,285.217Z"/><rect data-name="Path" x="285.731" y="125.393" width="81.443" height="13.999" transform="translate(29.788 322.365) rotate(-54.709)"/><rect data-name="Path" x="309.906" y="347.929" width="14" height="82.259" transform="translate(-163.643 244.599) rotate(-34.104)"/><rect data-name="Path" x="363.866" y="250.131" width="14" height="46.912" transform="translate(30.177 583.946) rotate(-78.749)"/><circle data-name="Path" cx="377.295" cy="60.545" r="39.714"/><polygon data-name="Path" points="279 174.101 173 208.292 173 355.977 279 321.787 279 174.101"/><path data-name="Path" d="M341.345,257.052A108.479,108.479,0,0,0,293,166.963V326.885a6.992,6.992,0,0,1-4.843,6.662l-85.163,27.467A108.323,108.323,0,0,0,341.345,257.052Z"/><polygon data-name="Path" points="263.211 164.488 167.039 133.474 70.867 164.488 167.039 195.504 263.211 164.488"/><polygon data-name="Path" points="55 321.787 159 355.307 159 207.622 55 174.101 55 321.787"/></g><text x="0" y="527" fill="#000000" font-size="5px" font-weight="bold" font-family="'Helvetica Neue', Helvetica, Arial-Unicode, Arial, Sans-serif">Created by Kiran Shastry</text><text x="0" y="532" fill="#000000" font-size="5px" font-weight="bold" font-family="'Helvetica Neue', Helvetica, Arial-Unicode, Arial, Sans-serif">from the Noun Project</text></svg>