<?xml version="1.0" encoding="utf-8"?>
<!-- Generator: Adobe Illustrator 25.4.1, SVG Export Plug-In . SVG Version: 6.00 Build 0)  -->
<svg version="1.1" id="Layer_1" xmlns="http://www.w3.org/2000/svg" xmlns:xlink="http://www.w3.org/1999/xlink" x="0px" y="0px"
	 viewBox="0 0 77.4 79.2" style="enable-background:new 0 0 77.4 79.2;" xml:space="preserve">
<path d="M77.4,30L77.4,30L77.4,30C77.4,29.9,77.4,29.9,77.4,30L77.4,30L77.4,30L77.4,30L77.4,30L77.4,30L63.9,10.5l0,0l0,0l0,0l0,0
	L42.6,0l0,0l0,0h-0.1l0,0l0,0l0,0l0,0l0,0L17.3,7.4l0,0l0,0l0,0l0,0l0,0L3.8,23.2c0,0,0,0,0,0.1l0,0l0,0L0,49.2l0,0l0,0l0,0l0,0
	c0,0,0,0,0,0.1l0,0l0,0l0,0l0,0l13.4,19.4l0,0l0,0l0,0l0,0l21.3,10.5h0.1l0,0l0,0l0,0l0,0l0,0L60,71.8l0,0l0,0l0,0L73.3,56l0,0l0,0
	l0,0L77.4,30L77.4,30z M54.7,71.6c-0.2,0.1-0.4,0.2-0.4,0.4l-18.7-3.8c0-0.2,0-0.3,0-0.5c0-0.5-0.1-0.9-0.4-1.3l16.6-10
	c0.9,1.4,2.3,2.4,4,2.6L54.7,71.6z M66.9,32.9L54.6,28c0.3-0.6,0.4-1.3,0.4-2.1c0-1.5-0.6-2.8-1.5-3.7l8.3-9.4
	c0.2,0.2,0.5,0.3,0.8,0.3c0.1,0,0.2,0,0.3-0.1l6.2,17.8C68,31.2,67.3,32,66.9,32.9z M33.1,65.3c-0.1,0-0.2,0-0.2,0l0.3-12.8
	c3-0.1,5.5-2,6.5-4.7l11.4,4c-0.1,0.5-0.2,1-0.2,1.6c0,1,0.3,2,0.7,2.8L35,66.2C34.5,65.7,33.9,65.3,33.1,65.3z M12.4,46.7L20.5,27
	c0.4,0.1,0.8,0.2,1.3,0.2s1-0.1,1.4-0.3l6.2,11.8c-2.3,1.2-3.9,3.7-3.9,6.5c0,0.5,0,0.9,0.1,1.3L14,48.7
	C13.8,47.8,13.2,47.1,12.4,46.7z M44.3,25.9c0,1.6,0.7,3,1.9,4l-8.5,9.8c-1.3-1.2-3-1.9-4.9-1.9c-1.1,0-2.2,0.3-3.1,0.7l-6.2-11.8
	c1-0.5,1.8-1.5,2-2.6L44.3,25.9z M51.2,51.5l-11.4-4c0.2-0.7,0.4-1.5,0.4-2.3c0-2-0.8-3.9-2.2-5.2l8.5-9.8c0.9,0.7,2,1.1,3.2,1.1
	c0.3,0,0.7,0,1-0.1l4.1,16.7C53.1,48.5,51.8,49.8,51.2,51.5z M61.4,12.6L53.1,22c-0.9-0.9-2.1-1.4-3.4-1.4c-1,0-1.9,0.3-2.6,0.7
	L40.4,9.6c0.6-0.4,1-1,1.2-1.7l19.5,3.7v0.1C61.1,12.1,61.2,12.3,61.4,12.6z M36.7,9.4c0.5,0.5,1.2,0.8,2,0.8c0.5,0,0.9-0.1,1.3-0.3
	l6.7,11.6c-1.3,0.9-2.2,2.4-2.3,4.1l-18.8-1.7c0-0.2,0.1-0.3,0.1-0.5c0-0.9-0.3-1.8-0.9-2.4L36.7,9.4z M20.1,26.9l-8,19.7
	c-0.4-0.1-0.7-0.2-1.1-0.2c-0.2,0-0.5,0-0.7,0.1l-6.4-18l14.2-3.6C18.5,25.7,19.2,26.5,20.1,26.9z M14.1,49.1l11.6-2.2
	c0.8,3.2,3.6,5.6,7,5.6l-0.3,12.9c-0.6,0.1-1.1,0.5-1.4,1l-17.3-15c0.3-0.5,0.5-1.1,0.5-1.8C14.2,49.4,14.2,49.2,14.1,49.1z
	 M56.7,47.6c-0.5,0-1.1,0.1-1.6,0.2L51,31.1c1.5-0.4,2.7-1.4,3.4-2.8l12.4,4.9c-0.1,0.4-0.2,0.8-0.2,1.3c0,1.2,0.5,2.2,1.4,3l-8,11
	C58.9,47.9,57.9,47.6,56.7,47.6z M70.5,30.5c-0.5,0-0.9,0.1-1.3,0.2L63,12.9c0,0,0.1,0,0.1-0.1l13.7,17.1L73.7,32
	C72.9,31.1,71.8,30.5,70.5,30.5z M74.2,26L63.5,12.6c0.2-0.2,0.3-0.5,0.3-0.9c0-0.3-0.1-0.5-0.2-0.7l0.2-0.1L74.2,26z M63.5,10.6
	l-0.1,0.1c-0.2-0.2-0.5-0.4-0.9-0.4s-0.8,0.2-1,0.5L47.3,2.6L63.5,10.6z M42.5,0.4l18.7,10.8v0.1L41.6,7.6c0-0.1,0-0.2,0-0.3
	c0-1.1-0.6-2-1.4-2.5L42.5,0.4z M42.1,0.4l-2.2,4.2c-0.4-0.2-0.8-0.3-1.2-0.3c-1.6,0-2.8,1.2-2.9,2.8L18.5,7.4L42.1,0.4z M35.8,7.4
	c0,0.6,0.3,1.2,0.7,1.7L24.6,20.6c-0.7-0.7-1.7-1.2-2.8-1.2c-0.4,0-0.7,0.1-1,0.2L17.5,7.7L35.8,7.4z M17.1,8l3.2,11.8
	c-1.5,0.6-2.5,2-2.5,3.6c0,0.4,0.1,0.7,0.2,1.1L4,28.1L17.1,8z M4.1,23.4L15.4,10L3.9,27.6L4.1,23.4z M3.5,27.7v0.6l-0.4,2.4
	L3.5,27.7z M3.7,29l6.2,17.6c-1.1,0.4-2,1.4-2.2,2.6l-7.3-0.1L3.7,29z M0.5,49.4l7.2,0.2c0,0,0,0,0,0.1c0,1.8,1.5,3.2,3.2,3.2
	c0.1,0,0.3,0,0.4,0l2,15.1L0.5,49.4z M11.7,52.8c0.7-0.2,1.3-0.6,1.7-1.1l17.4,15c-0.2,0.3-0.3,0.7-0.3,1.1l-16.8,0.6L11.7,52.8z
	 M14.3,68.7l16.3-0.6c0.2,1.2,1.1,2.1,2.3,2.1l1.8,8.5L14.3,68.7z M33.3,70.3c1-0.1,1.8-0.7,2.1-1.6l18.7,3.8L35,78.9L33.3,70.3z
	 M43.7,76.3l10.7-3.6c0.1,0.1,0.3,0.2,0.5,0.2c0.3,0,0.5-0.2,0.6-0.5l2.3-0.3L43.7,76.3z M60.1,71.5l-4.5,0.6V72l16.1-14.3
	L60.1,71.5z M55.3,71.7c-0.1,0-0.1-0.1-0.2-0.1l1-12.4c0.2,0,0.4,0,0.6,0c2.8,0,5.2-2,5.7-4.7L73,55.9L55.3,71.7z M62.5,54.2
	c0-0.3,0.1-0.5,0.1-0.8c0-1.9-1-3.7-2.4-4.7l8-11c0.7,0.5,1.5,0.8,2.4,0.8c0.1,0,0.1,0,0.2,0l2.5,17.2L62.5,54.2z M73.4,54.6
	l-2.3-16.2c1.9-0.3,3.4-1.9,3.4-3.9c0-0.8-0.2-1.5-0.6-2.2l3.1-2L73.4,54.6z" fill="#FFF"/>
</svg>
