<svg id="Layer_1" data-name="Layer 1" xmlns="http://www.w3.org/2000/svg" viewBox="0 0 13.68 7.54"><defs><style>.cls-1{fill:#FFFFFF;}</style></defs><path class="cls-1" d="M1.16,4.48a.22.22,0,0,1,.07-.17.23.23,0,0,1,.17-.07H2.93a.23.23,0,0,1,.17.07.22.22,0,0,1,.07.17V8.59a1.39,1.39,0,0,0,.13.65,1.2,1.2,0,0,0,.31.41,1.4,1.4,0,0,0,.4.21,1.55,1.55,0,0,0,.39.06,1.48,1.48,0,0,0,.39-.06,1.17,1.17,0,0,0,.71-.62,1.54,1.54,0,0,0,.12-.65V4.48a.26.26,0,0,1,.07-.17.23.23,0,0,1,.17-.07H7.39a.24.24,0,0,1,.24.24V8.59A3.68,3.68,0,0,1,7.4,9.9a2.84,2.84,0,0,1-.65,1,2.9,2.9,0,0,1-1,.64,3.54,3.54,0,0,1-1.33.23,3.54,3.54,0,0,1-1.33-.23,3,3,0,0,1-1-.64,3,3,0,0,1-.66-1,3.68,3.68,0,0,1-.23-1.31Z" transform="translate(-1.16 -4.23)"/><path class="cls-1" d="M11.28,9.65H10.4a.24.24,0,0,0-.17.07.25.25,0,0,0-.08.18v1.51a.23.23,0,0,1-.07.17.21.21,0,0,1-.17.07H8.39a.21.21,0,0,1-.17-.07.23.23,0,0,1-.07-.17V4.47a.24.24,0,0,1,.24-.24h3.1a2.72,2.72,0,0,1,1.07.21,2.53,2.53,0,0,1,.87.59A2.73,2.73,0,0,1,14,5.9,2.56,2.56,0,0,1,14.24,7,3.11,3.11,0,0,1,14.06,8a2.29,2.29,0,0,1-.56.85,2.42,2.42,0,0,1-.92.56A3.65,3.65,0,0,1,11.28,9.65Zm.08-3.56h-1a.24.24,0,0,0-.17.07.25.25,0,0,0-.08.18V7.52a.25.25,0,0,0,.08.18.24.24,0,0,0,.17.07h1.09a.64.64,0,0,0,.56-.25A.91.91,0,0,0,12.23,7a1.19,1.19,0,0,0-.05-.32.86.86,0,0,0-.45-.47A.84.84,0,0,0,11.36,6.09Z" transform="translate(-1.16 -4.23)"/><path class="cls-1" d="M14.84,10.68a1.1,1.1,0,0,1-.08.4,1.13,1.13,0,0,1-.23.34,1,1,0,0,1-.33.22,1.11,1.11,0,0,1-.41.08,1.1,1.1,0,0,1-.4-.08,1.19,1.19,0,0,1-.33-.22,1.33,1.33,0,0,1-.22-.34,1.1,1.1,0,0,1-.08-.4,1,1,0,0,1,.08-.4,1.21,1.21,0,0,1,.22-.32,1.23,1.23,0,0,1,.33-.23,1.1,1.1,0,0,1,.4-.08,1.11,1.11,0,0,1,.41.08,1,1,0,0,1,.33.23,1,1,0,0,1,.23.32A1,1,0,0,1,14.84,10.68Z" transform="translate(-1.16 -4.23)"/></svg>